<?xml version="1.0" encoding="UTF-8"?>
<svg width="30px" height="30px" viewBox="0 0 30 30" version="1.1" xmlns="http://www.w3.org/2000/svg" xmlns:xlink="http://www.w3.org/1999/xlink">
    <title>Comp / Icon / Insta</title>
    <g id="Comp-/-Icon-/-Insta" stroke="none" stroke-width="1" fill="none" fill-rule="evenodd">
        <rect id="Rectangle" x="0" y="0" width="30" height="30"></rect>
        <path d="M15.5,7 C18.2682456,7 18.5965643,7.01036796 19.6903842,7.06047977 C22.5001016,7.18835129 23.8125127,8.52149827 23.9403842,11.3104798 C23.990496,12.4034357 24,12.7317544 24,15.5 C24,18.2691096 23.989632,18.5965643 23.9403842,19.6895202 C23.8116487,22.4759097 22.5026936,23.8116487 19.6903842,23.9395202 C18.5965643,23.989632 18.2699736,24 15.5,24 C12.7317544,24 12.4034357,23.989632 11.3104798,23.9395202 C8.49385038,23.8107847 7.18835129,22.4715898 7.06047977,19.6886562 C7.01036796,18.5957003 7,18.2682456 7,15.499136 C7,12.7308904 7.01123196,12.4034357 7.06047977,11.3096158 C7.18921529,8.52149827 8.49817036,7.18748729 11.3104798,7.05961578 C12.4042997,7.01036796 12.7317544,7 15.5,7 L15.5,7 Z M15.5,5 C12.648375,5 12.291375,5.01225 11.171375,5.063 C7.358125,5.238 5.238875,7.35375 5.063875,11.1705 C5.01225,12.291375 5,12.648375 5,15.5 C5,18.351625 5.01225,18.7095 5.063,19.8295 C5.238,23.64275 7.35375,25.762 11.1705,25.937 C12.291375,25.98775 12.648375,26 15.5,26 C18.351625,26 18.7095,25.98775 19.8295,25.937 C23.63925,25.762 25.76375,23.64625 25.936125,19.8295 C25.98775,18.7095 26,18.351625 26,15.5 C26,12.648375 25.98775,12.291375 25.937,11.171375 C25.7655,7.361625 23.647125,5.238875 19.830375,5.063875 C18.7095,5.01225 18.351625,5 15.5,5 Z M15.5,10 C12.4625933,10 10,12.4623935 10,15.4995538 C10,18.536714 12.4625933,21 15.5,21 C18.5374067,21 21,18.5376065 21,15.4995538 C21,12.4623935 18.5374067,10 15.5,10 Z M15.5,19 C13.567125,19 12,17.43375 12,15.5 C12,13.567125 13.567125,12 15.5,12 C17.432875,12 19,13.567125 19,15.5 C19,17.43375 17.432875,19 15.5,19 Z M20.5010417,8 C19.671875,8 19,8.671875 19,9.5 C19,10.328125 19.671875,11 20.5010417,11 C21.3291667,11 22,10.328125 22,9.5 C22,8.671875 21.3291667,8 20.5010417,8 Z" fill="#000" fill-rule="nonzero"></path>
    </g>
</svg>