<?xml version="1.0" encoding="UTF-8"?>
<svg width="30px" height="30px" viewBox="0 0 30 30" version="1.1" xmlns="http://www.w3.org/2000/svg" xmlns:xlink="http://www.w3.org/1999/xlink">
    <title>Comp / Icon / TikTok</title>
    <g id="Comp-/-Icon-/-TikTok" stroke="none" stroke-width="1" fill="none" fill-rule="evenodd">
        <rect id="Rectangle" x="0" y="0" width="30" height="30"></rect>
        <path d="M19.2789761,9.6283977 L19.2786099,10.208784 L19.2777313,10.208784 L19.2777313,18.0093969 C19.2777313,19.8691377 18.5296393,21.6380091 17.1868814,22.9529156 C15.8440137,24.2678101 14.0376218,25 12.1388717,25 C10.2397433,25 8.43370539,24.2678101 7.09097188,22.9529156 C5.74810414,21.6380091 5,19.8691377 5,18.0093969 C5,16.1497397 5.74810414,14.3812985 7.09097188,13.066392 C8.43370539,11.7514258 10.2397433,11.0188654 12.1388717,11.0188654 L13.4636047,11.0188654 L13.4636047,14.6938445 L12.1388717,14.6938445 C11.2372928,14.6938445 10.381954,15.0407235 9.74433073,15.6651105 C9.10682948,16.2894258 8.75289535,17.1266222 8.75289535,18.0093969 C8.75289535,18.8922432 9.10682948,19.7298101 9.74433073,20.3541851 C10.381954,20.9780702 11.2372928,21.3253914 12.1388717,21.3253914 C13.0404385,21.3253914 13.8957772,20.9780702 14.5334005,20.3541851 C15.1705357,19.7298101 15.5248359,18.8926136 15.5248359,18.0171167 L15.5248359,4 L19.2621104,4 L19.4493287,4.33923086 C20.0312173,5.39530755 20.8160548,6.39642518 21.7893676,7.13510405 C22.5419749,7.70649181 23.393677,8.10954879 24.3347473,8.27109185 L25,8.38539569 L24.2861397,11.9283368 L23.6468811,11.8164708 C22.8855236,11.683202 22.137932,11.4570441 21.4379352,11.1339699 C20.6345968,10.7628559 19.8893605,10.26207 19.2789761,9.6283977" fill="#000" fill-rule="nonzero"></path>
    </g>
</svg>